<svg width="580" height="400" xmlns="http://www.w3.org/2000/svg">
 <!-- Created with Method Draw - http://github.com/duopixel/Method-Draw/ -->

 <g>
  <title>background</title>
  <rect height="402" width="582" y="-1" x="-1" fill="#fff" id="canvas_background"/>
  <g y="0" x="0" height="100%" width="100%" display="none" overflow="visible" id="canvasGrid">
   <rect height="100%" width="100%" y="0" x="0" stroke-width="0" fill="url(#gridpattern)"/>
  </g>
 </g>
 <g>
  <title>Layer 1</title>
  <path d="m196.448914,385.809448c22.111267,-23.847473 38.280014,-54.046478 51.827911,-84.645477c8.27597,-12.203827 0.440613,-22.881165 -10.831909,-12.532104c-28.970123,21.618164 -68.405243,29.031464 -99.771652,9.308929c-35.458382,-20.492004 -51.448105,-69.220276 -43.402916,-111.679199c5.094902,-43.028275 33.115868,-76.7556 63.539955,-100.982933c34.949066,-27.941353 72.689545,-51.928032 104.630951,-84.283076c13.337006,0.298809 23.373993,23.689029 37.727325,29.878619c38.112183,31.726212 83.278137,55.079178 113.29068,97.503036c15.162689,24.173431 23.804413,53.940094 24.76944,83.36496c-4.620209,39.902328 -25.90863,81.984329 -62.621552,93.347275c-31.737457,10.732483 -64.389954,-2.878296 -92.0466,-20.193939c-3.378235,-0.810364 -15.768768,-11.720154 -10.857971,-3.241455c16.534058,37.921661 34.64975,75.576263 60.885864,106.366943c1.542084,3.889984 13.636353,13.119537 7.199677,12.972809c-53.870392,0 -107.741013,0 -161.61174,0c5.757492,-5.06076 11.514954,-10.12265 17.272537,-15.184814l0,0.000427z" stroke-width="1.5" fill="#ffe7a2" id="svg_5"/>
 </g>
</svg>