<svg width="500" height="500" xmlns="http://www.w3.org/2000/svg">
 <!-- Created with Method Draw - http://github.com/duopixel/Method-Draw/ -->
 <g>
  <title>background</title>
  <rect height="502" width="502" y="-1" x="-1" fill="#fff" id="canvas_background"/>
  <g y="0" x="0" height="100%" width="100%" display="none" overflow="visible" id="canvasGrid">
   <rect height="100%" width="100%" y="0" x="0" stroke-width="0" fill="url(#gridpattern)"/>
  </g>
 </g>
 <g>
  <title>Layer 1</title>
  <path d="m436.276917,483.261597c0,7.230927 -5.268036,13.090271 -11.770142,13.090271l-75.367554,0c-6.501526,0 -11.769043,-5.859344 -11.769043,-13.090271l0,-178.09021c0,-7.23056 5.267517,-13.090332 11.769043,-13.090332l75.367554,0c6.502106,0 11.770142,5.859772 11.770142,13.090332l0,178.09021zm-279.032074,0c0,7.230927 -5.268463,13.090271 -11.769241,13.090271l-75.368523,0c-6.500683,0 -11.769234,-5.859344 -11.769234,-13.090271l0,-178.09021c0,-7.23056 5.268551,-13.090332 11.769234,-13.090332l75.368523,0c6.500778,0 11.769241,5.859772 11.769241,13.090332l0,178.09021zm91.054321,-482.909768c-136.381157,0 -247.091369,122.020531 -248.791617,273.244393l43.177214,0c1.400074,-124.98819 92.904991,-225.834629 205.614403,-225.834629c112.709381,0 204.214355,100.846439 205.597961,225.834629l43.176544,0c-1.683044,-151.223862 -112.426025,-273.244393 -248.774506,-273.244393zm-248.441579,411.76661l42.39372,0l0,-138.800964l-42.39372,0l0,138.800964zm453.689748,-138.819519l0,138.800812l43.960236,0l0,-138.800812l-43.960236,0z" stroke-width="5" stroke="#000" fill="#fff" id="svg_1"/>
 </g>
</svg>